<svg xmlns="http://www.w3.org/2000/svg" xmlns:xlink="http://www.w3.org/1999/xlink" viewBox="0 0 220 220"><defs><style>.cls-1{fill:#00aa61;}.cls-2{opacity:0.5;}.cls-3{fill:url(#未命名漸層_96);}.cls-4{fill:#fff;}.cls-5{fill:url(#primary);}</style><linearGradient id="未命名漸層_96" x1="104.07" y1="127.97" x2="122.7" y2="114.93" gradientUnits="userSpaceOnUse"><stop offset="0"/><stop offset="0.07" stop-opacity="0.83"/><stop offset="0.5" stop-opacity="0.65"/><stop offset="0.93" stop-opacity="0.83"/><stop offset="1"/></linearGradient><linearGradient id="primary" x1="190.87" y1="167.1" x2="41.28" y2="17.52" gradientTransform="translate(7)" gradientUnits="userSpaceOnUse"><stop offset="0" stop-color="#38f8d6"/><stop offset="0.61" stop-color="#43e87b"/></linearGradient></defs><g id="圖層_1" data-name="圖層 1"><polygon class="cls-1" points="93.41 112.74 133.36 168.54 133.36 130.16 93.41 74.37 93.41 112.74"/><g class="cls-2"><polygon class="cls-3" points="93.41 112.74 133.36 168.54 133.36 130.16 93.41 74.37 93.41 112.74"/></g><path class="cls-4" d="M173.46,51.46H144.84a1.43,1.43,0,0,0-1.16,2.26L199.41,132a1.43,1.43,0,0,0,2.59-.83V80A28.54,28.54,0,0,0,173.46,51.46Z"/><path class="cls-4" d="M35.94,53H13.43a1.43,1.43,0,0,0-1.16,2.26l72.6,101.4a28.55,28.55,0,0,0,23.2,11.92h25.29L59.14,64.89A28.53,28.53,0,0,0,35.94,53Z"/><path class="cls-4" d="M141.9,86.29a28.55,28.55,0,0,0-23.2-11.92H93.41l58.9,82.25a28.52,28.52,0,0,0,23.2,11.92h19.73a2.86,2.86,0,0,0,2.32-4.52Z"/><path class="cls-5" d="M173.46,51.46H144.84a1.43,1.43,0,0,0-1.16,2.26L199.41,132a1.43,1.43,0,0,0,2.59-.83V80A28.54,28.54,0,0,0,173.46,51.46Z"/><path class="cls-5" d="M35.94,53H13.43a1.43,1.43,0,0,0-1.16,2.26l72.6,101.4a28.55,28.55,0,0,0,23.2,11.92h25.29L59.14,64.89A28.53,28.53,0,0,0,35.94,53Z"/><path class="cls-5" d="M141.9,86.29a28.55,28.55,0,0,0-23.2-11.92H93.41l58.9,82.25a28.52,28.52,0,0,0,23.2,11.92h19.73a2.86,2.86,0,0,0,2.32-4.52Z"/></g></svg>