<svg xmlns="http://www.w3.org/2000/svg" xmlns:xlink="http://www.w3.org/1999/xlink" viewBox="0 0 220 220"><defs><style>.cls-1{fill:#00aa61;}.cls-2{opacity:0.5;}.cls-3{fill:url(#未命名漸層_96);}.cls-4{fill:#fff;}.cls-5{fill:url(#primary);}.cls-6{fill:#f2f2f2;}</style><linearGradient id="未命名漸層_96" x1="111.19" y1="88.34" x2="117.33" y2="84.04" gradientUnits="userSpaceOnUse"><stop offset="0"/><stop offset="0.07" stop-opacity="0.83"/><stop offset="0.5" stop-opacity="0.65"/><stop offset="0.93" stop-opacity="0.83"/><stop offset="1"/></linearGradient><linearGradient id="primary" x1="192.44" y1="-90.64" x2="143.12" y2="-139.96" gradientTransform="translate(-50.33 191.88)" gradientUnits="userSpaceOnUse"><stop offset="0" stop-color="#38f8d6"/><stop offset="0.61" stop-color="#43e87b"/></linearGradient></defs><g id="圖層_1" data-name="圖層 1"><polygon class="cls-1" points="107.67 83.32 120.84 101.72 120.84 89.06 107.67 70.67 107.67 83.32"/><g class="cls-2"><polygon class="cls-3" points="107.67 83.32 120.84 101.72 120.84 89.06 107.67 70.67 107.67 83.32"/></g><path class="cls-4" d="M134.06,63.11h-9.43a.48.48,0,0,0-.39.75l18.38,25.81a.47.47,0,0,0,.85-.27V72.52A9.41,9.41,0,0,0,134.06,63.11Z"/><path class="cls-4" d="M88.72,63.61H81.3a.47.47,0,0,0-.38.74l23.93,33.43a9.41,9.41,0,0,0,7.65,3.93h8.34L96.37,67.54A9.4,9.4,0,0,0,88.72,63.61Z"/><path class="cls-4" d="M123.66,74.6A9.41,9.41,0,0,0,116,70.67h-8.34l19.42,27.11a9.38,9.38,0,0,0,7.65,3.93h6.5a.94.94,0,0,0,.77-1.48Z"/><path class="cls-5" d="M134.06,63.11h-9.43a.48.48,0,0,0-.39.75l18.38,25.81a.47.47,0,0,0,.85-.27V72.52A9.41,9.41,0,0,0,134.06,63.11Z"/><path class="cls-5" d="M88.72,63.61H81.3a.47.47,0,0,0-.38.74l23.93,33.43a9.41,9.41,0,0,0,7.65,3.93h8.34L96.37,67.54A9.4,9.4,0,0,0,88.72,63.61Z"/><path class="cls-5" d="M123.66,74.6A9.41,9.41,0,0,0,116,70.67h-8.34l19.42,27.11a9.38,9.38,0,0,0,7.65,3.93h6.5a.94.94,0,0,0,.77-1.48Z"/><path class="cls-6" d="M46.53,124.87a3,3,0,0,1,3.64.2A2.44,2.44,0,0,1,51,127a4.55,4.55,0,0,1-.27,1.36l-6.84,18.49a2.69,2.69,0,0,1-1.24,1.48,3.78,3.78,0,0,1-2,.53,3.71,3.71,0,0,1-2-.53,2.7,2.7,0,0,1-1.22-1.48l-4.42-12.61-4.63,12.61a2.9,2.9,0,0,1-1.26,1.48,3.62,3.62,0,0,1-1.93.53,3.72,3.72,0,0,1-2-.53A2.78,2.78,0,0,1,22,146.86l-6.87-18.49a3.85,3.85,0,0,1-.24-1.29,2.44,2.44,0,0,1,.91-2,3.19,3.19,0,0,1,2.09-.73,3.26,3.26,0,0,1,1.75.49,2.73,2.73,0,0,1,1.14,1.48l4.65,13.4,4.94-13.4a2.82,2.82,0,0,1,1.1-1.46,3,3,0,0,1,1.68-.51,2.84,2.84,0,0,1,2.76,2L40.56,140l4.86-13.7A2.89,2.89,0,0,1,46.53,124.87Z"/><path class="cls-6" d="M54.38,128.32a2.7,2.7,0,0,1-.9-2.13,2.67,2.67,0,0,1,.9-2.11,3.58,3.58,0,0,1,2.43-.78,3.63,3.63,0,0,1,2.42.78,2.65,2.65,0,0,1,.91,2.11,2.7,2.7,0,0,1-.9,2.13,4.09,4.09,0,0,1-4.86,0Zm.27,19.75a2.5,2.5,0,0,1-.86-2.09v-11.7a2.53,2.53,0,0,1,.86-2.09,3.73,3.73,0,0,1,4.32,0,2.54,2.54,0,0,1,.87,2.09V146a2.51,2.51,0,0,1-.87,2.09,3.68,3.68,0,0,1-4.32,0Z"/><path class="cls-6" d="M79.05,133.21a8.48,8.48,0,0,1,1.46,5.43V146a2.62,2.62,0,0,1-.82,2,3.63,3.63,0,0,1-4.42,0,2.64,2.64,0,0,1-.81-2v-7.07a3.6,3.6,0,0,0-.53-2.18,1.88,1.88,0,0,0-1.58-.68,2.78,2.78,0,0,0-2.16.87,3.33,3.33,0,0,0-.8,2.33V146a2.64,2.64,0,0,1-.81,2,3.63,3.63,0,0,1-4.42,0,2.62,2.62,0,0,1-.82-2V134.22a2.5,2.5,0,0,1,.85-2,3.17,3.17,0,0,1,2.21-.76,2.93,2.93,0,0,1,2.06.71,2.44,2.44,0,0,1,.76,1.87,5.78,5.78,0,0,1,2.28-2,7,7,0,0,1,3.09-.68A5.43,5.43,0,0,1,79.05,133.21Z"/><path class="cls-6" d="M100.76,125.19a2.48,2.48,0,0,1,.86,2V146a2.64,2.64,0,0,1-.81,2,3.1,3.1,0,0,1-2.18.75,3.14,3.14,0,0,1-2.06-.66,2.58,2.58,0,0,1-.9-1.82,4.9,4.9,0,0,1-2.09,1.87,7.13,7.13,0,0,1-6.86-.43,7.29,7.29,0,0,1-2.64-3.11,11.56,11.56,0,0,1,0-9.13,6.88,6.88,0,0,1,6.48-4.06,6.81,6.81,0,0,1,2.94.64,5.23,5.23,0,0,1,2.09,1.74V127a2.43,2.43,0,0,1,.8-1.9,3.09,3.09,0,0,1,2.16-.71A3.24,3.24,0,0,1,100.76,125.19Zm-5.94,18a5,5,0,0,0,.85-3.13,4.85,4.85,0,0,0-.85-3.08A3.3,3.3,0,0,0,90,137a4.74,4.74,0,0,0-.85,3,5,5,0,0,0,.87,3.16,2.87,2.87,0,0,0,2.4,1.13A2.92,2.92,0,0,0,94.82,143.23Z"/><path class="cls-6" d="M128.47,131.92a2.43,2.43,0,0,1,1.37-.42,3,3,0,0,1,2,.76,2.36,2.36,0,0,1,.88,1.85,2.85,2.85,0,0,1-.27,1.13L127,147a2.8,2.8,0,0,1-1.13,1.31,3.2,3.2,0,0,1-1.69.46,3.05,3.05,0,0,1-1.66-.46,2.8,2.8,0,0,1-1.13-1.31l-3.23-7.17-3,7.17a2.6,2.6,0,0,1-1.11,1.31,3.3,3.3,0,0,1-3.36,0,3,3,0,0,1-1.18-1.31L104,135.24a2.55,2.55,0,0,1-.24-1.09,2.34,2.34,0,0,1,.94-1.89,3.21,3.21,0,0,1,2.09-.76,2.71,2.71,0,0,1,1.48.42,2.65,2.65,0,0,1,1,1.31l3.23,7.85,3.3-7.81a2.62,2.62,0,0,1,1-1.3,2.92,2.92,0,0,1,1.53-.44,2.86,2.86,0,0,1,1.53.44,2.64,2.64,0,0,1,1.06,1.3l3.4,7.85,3.16-7.92A2.67,2.67,0,0,1,128.47,131.92Z"/><path class="cls-6" d="M148.19,133.28c1.23,1.24,1.85,3.11,1.85,5.63V146a2.7,2.7,0,0,1-.76,2,3,3,0,0,1-2.13.73,2.87,2.87,0,0,1-2-.68,2.6,2.6,0,0,1-.83-1.84,3.8,3.8,0,0,1-1.6,1.91,5.08,5.08,0,0,1-2.68.68,7,7,0,0,1-3.13-.7,5.36,5.36,0,0,1-2.19-1.94,5,5,0,0,1-.8-2.8,4.26,4.26,0,0,1,.93-2.88,5.51,5.51,0,0,1,3-1.54,25,25,0,0,1,5.51-.48h.91v-.41a2.31,2.31,0,0,0-.54-1.71,2.59,2.59,0,0,0-1.84-.53,13.63,13.63,0,0,0-4.08,1,4.17,4.17,0,0,1-1.32.27,1.67,1.67,0,0,1-1.36-.61,2.42,2.42,0,0,1-.51-1.6,2.25,2.25,0,0,1,.3-1.22,2.73,2.73,0,0,1,1-.85,11.75,11.75,0,0,1,3-1,17.31,17.31,0,0,1,3.54-.37Q146.33,131.43,148.19,133.28Zm-4.68,10.64a3.18,3.18,0,0,0,.78-2.22v-.41h-.54a8.65,8.65,0,0,0-3.09.39,1.34,1.34,0,0,0-.92,1.31,1.77,1.77,0,0,0,.49,1.29,1.69,1.69,0,0,0,1.28.51A2.57,2.57,0,0,0,143.51,143.92Z"/><path class="cls-6" d="M154.31,148.07a2.51,2.51,0,0,1-.87-2.09V127.25a2.56,2.56,0,0,1,.87-2.11,3.63,3.63,0,0,1,4.31,0,2.56,2.56,0,0,1,.87,2.11V146a2.51,2.51,0,0,1-.87,2.09,3.67,3.67,0,0,1-4.31,0Z"/><path class="cls-6" d="M180.57,145.85a2.93,2.93,0,0,1-.8,2,2.49,2.49,0,0,1-1.92.89,2.9,2.9,0,0,1-1.9-.85l-6.9-6.57v4.59a2.56,2.56,0,0,1-.87,2.11,3.6,3.6,0,0,1-4.32,0,2.56,2.56,0,0,1-.87-2.11V127.25a2.56,2.56,0,0,1,.87-2.11,3.64,3.64,0,0,1,4.32,0,2.56,2.56,0,0,1,.87,2.11v11.52l6.29-6.39a2.63,2.63,0,0,1,2-.88,2.67,2.67,0,0,1,1.92.83,2.62,2.62,0,0,1,.83,1.89,2.7,2.7,0,0,1-.88,1.94l-3.71,3.67,4.22,4A2.67,2.67,0,0,1,180.57,145.85Z"/><path class="cls-6" d="M197.45,143.81a2.44,2.44,0,0,1,.49,1.59,2.26,2.26,0,0,1-1.32,2.08,13.41,13.41,0,0,1-2.74,1,12.16,12.16,0,0,1-2.9.39,10.56,10.56,0,0,1-4.87-1.06,7.51,7.51,0,0,1-3.19-3,10.06,10.06,0,0,1,0-9.13,7.7,7.7,0,0,1,3-3.1,8.58,8.58,0,0,1,4.33-1.1,8.1,8.1,0,0,1,4.12,1,6.87,6.87,0,0,1,2.73,2.89,9.38,9.38,0,0,1,1,4.39,1.85,1.85,0,0,1-.35,1.2,1.27,1.27,0,0,1-1,.43h-9a3.67,3.67,0,0,0,1.06,2.34,3.54,3.54,0,0,0,2.41.72,6,6,0,0,0,1.57-.19,14,14,0,0,0,1.59-.53c.34-.13.68-.25,1-.35a2.76,2.76,0,0,1,.9-.16A1.56,1.56,0,0,1,197.45,143.81Zm-9-7.54a3.66,3.66,0,0,0-.85,2.23H193c-.14-2-1-3-2.59-3A2.48,2.48,0,0,0,188.46,136.27Z"/><path class="cls-6" d="M213.21,132a2.42,2.42,0,0,1,.68,1.86,2.66,2.66,0,0,1-.63,2,3.79,3.79,0,0,1-2.26.78l-1,.1a3.68,3.68,0,0,0-2.43,1.07,3.55,3.55,0,0,0-.73,2.37V146a2.51,2.51,0,0,1-.87,2.09,3.68,3.68,0,0,1-4.32,0,2.53,2.53,0,0,1-.86-2.09V134.22a2.49,2.49,0,0,1,.86-2,3.23,3.23,0,0,1,2.09-.71,2.92,2.92,0,0,1,2,.68,2.41,2.41,0,0,1,.76,1.9v.65a4.54,4.54,0,0,1,1.79-2.32,5.18,5.18,0,0,1,2.6-.88l.47,0A2.3,2.3,0,0,1,213.21,132Z"/></g></svg>