<svg xmlns="http://www.w3.org/2000/svg" xmlns:xlink="http://www.w3.org/1999/xlink" viewBox="0 0 220 220"><defs><style>.cls-1{fill:#fff;}.cls-2{fill:url(#primary);}.cls-3{fill:#00aa61;}.cls-4{opacity:0.5;}.cls-5{fill:url(#未命名漸層_26);}.cls-6{fill:#f2f2f2;}</style><linearGradient id="primary" x1="211.6" y1="-68.85" x2="111.97" y2="-168.48" gradientTransform="translate(-49.33 191.88)" gradientUnits="userSpaceOnUse"><stop offset="0" stop-color="#38f8d6"/><stop offset="0.61" stop-color="#43e87b"/></linearGradient><linearGradient id="未命名漸層_26" x1="99.8" y1="96.97" x2="112.2" y2="88.28" gradientUnits="userSpaceOnUse"><stop offset="0" stop-opacity="0.25"/><stop offset="0.07" stop-opacity="0.15"/><stop offset="0.5" stop-opacity="0.05"/><stop offset="0.93" stop-opacity="0.15"/><stop offset="1" stop-opacity="0.25"/></linearGradient></defs><g id="圖層_1" data-name="圖層 1"><path class="cls-1" d="M146,46H127a1,1,0,0,0-.78,1.5l37.12,52.14A1,1,0,0,0,165,99.1V65A19,19,0,0,0,146,46Z"/><path class="cls-1" d="M54.42,47h-15a1,1,0,0,0-.78,1.5L87,116A19,19,0,0,0,102.46,124H119.3L69.87,55A19,19,0,0,0,54.42,47Z"/><path class="cls-1" d="M125,69.2a19,19,0,0,0-15.45-7.94H92.7L131.92,116A19,19,0,0,0,147.37,124h13.15a1.89,1.89,0,0,0,1.54-3Z"/><path class="cls-2" d="M146,46H127a1,1,0,0,0-.78,1.5l37.12,52.14A1,1,0,0,0,165,99.1V65A19,19,0,0,0,146,46Z"/><path class="cls-2" d="M54.42,47h-15a1,1,0,0,0-.78,1.5L87,116A19,19,0,0,0,102.46,124H119.3L69.87,55A19,19,0,0,0,54.42,47Z"/><path class="cls-2" d="M125,69.2a19,19,0,0,0-15.45-7.94H92.7L131.92,116A19,19,0,0,0,147.37,124h13.15a1.89,1.89,0,0,0,1.54-3Z"/><polygon class="cls-3" points="92.7 86.82 119.31 123.98 119.31 98.42 92.7 61.26 92.7 86.82"/><g class="cls-4"><polygon class="cls-5" points="92.7 86.82 119.31 123.98 119.31 98.42 92.7 61.26 92.7 86.82"/></g><path class="cls-6" d="M46.51,150.16a3,3,0,0,1,1.68-.51,2.9,2.9,0,0,1,2,.71A2.44,2.44,0,0,1,51,152.3a4.55,4.55,0,0,1-.27,1.36l-6.84,18.49a2.69,2.69,0,0,1-1.24,1.48,3.87,3.87,0,0,1-2,.53,3.8,3.8,0,0,1-2-.53,2.7,2.7,0,0,1-1.22-1.48L33,159.54,28.4,172.15a2.93,2.93,0,0,1-1.25,1.48,3.75,3.75,0,0,1-1.94.53,3.81,3.81,0,0,1-2-.53A2.78,2.78,0,0,1,22,172.15l-6.87-18.49a3.94,3.94,0,0,1-.24-1.29,2.44,2.44,0,0,1,.91-2,3.19,3.19,0,0,1,2.09-.73,3.26,3.26,0,0,1,1.75.49,2.73,2.73,0,0,1,1.14,1.48L25.44,165l4.94-13.39a2.78,2.78,0,0,1,1.1-1.46,3,3,0,0,1,1.68-.51,2.84,2.84,0,0,1,2.76,2l4.62,13.67,4.86-13.7A2.85,2.85,0,0,1,46.51,150.16Z"/><path class="cls-6" d="M54.36,153.61a2.71,2.71,0,0,1-.9-2.13,2.67,2.67,0,0,1,.9-2.11,3.58,3.58,0,0,1,2.43-.78,3.63,3.63,0,0,1,2.42.78,2.65,2.65,0,0,1,.91,2.11,2.71,2.71,0,0,1-.9,2.13,4.09,4.09,0,0,1-4.86,0Zm.27,19.75a2.53,2.53,0,0,1-.86-2.09v-11.7a2.55,2.55,0,0,1,.86-2.09,3.73,3.73,0,0,1,4.32,0,2.52,2.52,0,0,1,.87,2.09v11.7a2.51,2.51,0,0,1-.87,2.09,3.68,3.68,0,0,1-4.32,0Z"/><path class="cls-6" d="M79,158.5a8.48,8.48,0,0,1,1.46,5.43v7.34a2.62,2.62,0,0,1-.82,2,3.63,3.63,0,0,1-4.42,0,2.64,2.64,0,0,1-.81-2V164.2a3.6,3.6,0,0,0-.53-2.18,1.88,1.88,0,0,0-1.58-.68,2.78,2.78,0,0,0-2.16.87,3.31,3.31,0,0,0-.8,2.33v6.73a2.64,2.64,0,0,1-.81,2,3.63,3.63,0,0,1-4.42,0,2.62,2.62,0,0,1-.82-2V159.51a2.5,2.5,0,0,1,.85-2,3.17,3.17,0,0,1,2.21-.76,2.88,2.88,0,0,1,2.06.71,2.44,2.44,0,0,1,.76,1.87,5.78,5.78,0,0,1,2.28-2,7,7,0,0,1,3.09-.68A5.43,5.43,0,0,1,79,158.5Z"/><path class="cls-6" d="M100.74,150.48a2.48,2.48,0,0,1,.87,2v18.84a2.65,2.65,0,0,1-.82,2,3.1,3.1,0,0,1-2.18.75,3,3,0,0,1-2-.67,2.51,2.51,0,0,1-.91-1.81,4.9,4.9,0,0,1-2.09,1.87A7.13,7.13,0,0,1,86.7,173a7.29,7.29,0,0,1-2.64-3.11,10.67,10.67,0,0,1-1-4.59,10.46,10.46,0,0,1,.93-4.54,6.88,6.88,0,0,1,6.48-4.06,6.67,6.67,0,0,1,2.94.64,5.15,5.15,0,0,1,2.09,1.74v-6.77a2.43,2.43,0,0,1,.8-1.9,3.1,3.1,0,0,1,2.16-.72A3.25,3.25,0,0,1,100.74,150.48Zm-5.94,18a5,5,0,0,0,.85-3.13,4.85,4.85,0,0,0-.85-3.08,3.32,3.32,0,0,0-4.86,0,4.79,4.79,0,0,0-.85,3,5.05,5.05,0,0,0,.87,3.16,2.86,2.86,0,0,0,2.4,1.12A2.91,2.91,0,0,0,94.8,168.52Z"/><path class="cls-6" d="M128.45,157.21a2.43,2.43,0,0,1,1.37-.42,3,3,0,0,1,2,.76,2.36,2.36,0,0,1,.88,1.85,2.85,2.85,0,0,1-.27,1.13l-5.51,11.79a2.69,2.69,0,0,1-1.13,1.31,3.2,3.2,0,0,1-1.69.46,3.05,3.05,0,0,1-1.66-.46,2.8,2.8,0,0,1-1.13-1.31l-3.23-7.17-3,7.17a2.6,2.6,0,0,1-1.11,1.31,3.3,3.3,0,0,1-3.36,0,3,3,0,0,1-1.18-1.31L104,160.53a2.55,2.55,0,0,1-.24-1.09,2.34,2.34,0,0,1,.94-1.89,3.21,3.21,0,0,1,2.09-.76,2.71,2.71,0,0,1,1.48.42,2.61,2.61,0,0,1,1,1.31l3.23,7.85,3.3-7.82a2.7,2.7,0,0,1,1-1.29,2.92,2.92,0,0,1,1.53-.44,2.86,2.86,0,0,1,1.53.44,2.66,2.66,0,0,1,1.06,1.29l3.4,7.86,3.16-7.92A2.63,2.63,0,0,1,128.45,157.21Z"/><path class="cls-6" d="M148.17,158.57c1.23,1.24,1.85,3.11,1.85,5.63v7.1a2.67,2.67,0,0,1-.76,2,3,3,0,0,1-2.13.73,2.84,2.84,0,0,1-1.95-.68,2.57,2.57,0,0,1-.84-1.84,3.75,3.75,0,0,1-1.6,1.91,5.08,5.08,0,0,1-2.68.68,7,7,0,0,1-3.13-.7,5.44,5.44,0,0,1-2.19-1.94,5,5,0,0,1-.8-2.8,4.24,4.24,0,0,1,.93-2.88,5.51,5.51,0,0,1,3-1.54,25,25,0,0,1,5.51-.48h.91v-.41a2.35,2.35,0,0,0-.54-1.72,2.59,2.59,0,0,0-1.84-.52,13.38,13.38,0,0,0-4.08,1,4.17,4.17,0,0,1-1.32.27,1.67,1.67,0,0,1-1.36-.61,2.42,2.42,0,0,1-.51-1.6,2.25,2.25,0,0,1,.3-1.22,2.73,2.73,0,0,1,1-.85,11.75,11.75,0,0,1,3-1,17.31,17.31,0,0,1,3.54-.37Q146.31,156.72,148.17,158.57Zm-4.68,10.64a3.2,3.2,0,0,0,.78-2.22v-.41h-.54a8.65,8.65,0,0,0-3.09.39,1.34,1.34,0,0,0-.92,1.31,1.77,1.77,0,0,0,.49,1.29,1.69,1.69,0,0,0,1.28.51A2.57,2.57,0,0,0,143.49,169.21Z"/><path class="cls-6" d="M154.29,173.36a2.51,2.51,0,0,1-.87-2.09V152.54a2.56,2.56,0,0,1,.87-2.11,3.24,3.24,0,0,1,2.16-.72,3.27,3.27,0,0,1,2.16.72,2.59,2.59,0,0,1,.86,2.11v18.73a2.53,2.53,0,0,1-.86,2.09,3.32,3.32,0,0,1-2.16.7A3.28,3.28,0,0,1,154.29,173.36Z"/><path class="cls-6" d="M180.55,171.13a2.93,2.93,0,0,1-.8,2,2.48,2.48,0,0,1-1.92.88,2.85,2.85,0,0,1-1.9-.85l-6.9-6.56v4.59a2.58,2.58,0,0,1-.87,2.11,3.64,3.64,0,0,1-4.32,0,2.58,2.58,0,0,1-.87-2.11V152.54a2.56,2.56,0,0,1,.87-2.11,3.6,3.6,0,0,1,4.32,0,2.56,2.56,0,0,1,.87,2.11v11.52l6.29-6.39a2.64,2.64,0,0,1,3.89,0,2.61,2.61,0,0,1,.83,1.89,2.66,2.66,0,0,1-.88,1.93l-3.71,3.68,4.22,4A2.66,2.66,0,0,1,180.55,171.13Z"/><path class="cls-6" d="M197.43,169.09a2.49,2.49,0,0,1,.5,1.6,2.27,2.27,0,0,1-1.33,2.08,13.43,13.43,0,0,1-2.74,1,11.71,11.71,0,0,1-2.9.4,10.56,10.56,0,0,1-4.87-1.06,7.51,7.51,0,0,1-3.19-3,10.06,10.06,0,0,1-.05-9.13,7.7,7.7,0,0,1,3-3.1,8.58,8.58,0,0,1,4.33-1.1,8.1,8.1,0,0,1,4.12,1,7,7,0,0,1,2.74,2.89,9.46,9.46,0,0,1,1,4.38,1.86,1.86,0,0,1-.35,1.21,1.31,1.31,0,0,1-1,.43h-9a3.69,3.69,0,0,0,1.06,2.34,3.54,3.54,0,0,0,2.41.71,6.45,6.45,0,0,0,1.57-.18,16.39,16.39,0,0,0,1.59-.53l1-.36a3.08,3.08,0,0,1,.9-.15A1.58,1.58,0,0,1,197.43,169.09Zm-9-7.53a3.66,3.66,0,0,0-.85,2.23h5.34c-.14-2-1-3-2.59-3A2.48,2.48,0,0,0,188.44,161.56Z"/><path class="cls-6" d="M213.19,157.31a2.42,2.42,0,0,1,.68,1.86,2.66,2.66,0,0,1-.63,2,3.79,3.79,0,0,1-2.26.78l-1,.1a3.68,3.68,0,0,0-2.43,1.07,3.54,3.54,0,0,0-.73,2.36v5.82a2.51,2.51,0,0,1-.87,2.09,3.68,3.68,0,0,1-4.32,0,2.53,2.53,0,0,1-.86-2.09V159.51a2.47,2.47,0,0,1,.86-2,3.17,3.17,0,0,1,2.09-.71,2.92,2.92,0,0,1,2,.68,2.39,2.39,0,0,1,.76,1.9V160a4.6,4.6,0,0,1,1.79-2.32,5.22,5.22,0,0,1,2.6-.88l.48,0A2.25,2.25,0,0,1,213.19,157.31Z"/></g></svg>