<svg xmlns="http://www.w3.org/2000/svg" xmlns:xlink="http://www.w3.org/1999/xlink" viewBox="0 0 220 220"><defs><style>.cls-1{fill:#fff;}.cls-2{fill:url(#primary);}.cls-3{fill:#00aa61;}.cls-4{opacity:0.5;}.cls-5{fill:url(#未命名漸層_26);}.cls-6{fill:#333;}</style><linearGradient id="primary" x1="-538.6" y1="-68.85" x2="-638.22" y2="-168.48" gradientTransform="translate(699.38 191.88)" gradientUnits="userSpaceOnUse"><stop offset="0" stop-color="#38f8d6"/><stop offset="0.61" stop-color="#43e87b"/></linearGradient><linearGradient id="未命名漸層_26" x1="98.31" y1="96.97" x2="110.72" y2="88.28" gradientUnits="userSpaceOnUse"><stop offset="0" stop-opacity="0.25"/><stop offset="0.07" stop-opacity="0.15"/><stop offset="0.5" stop-opacity="0.05"/><stop offset="0.93" stop-opacity="0.15"/><stop offset="1" stop-opacity="0.25"/></linearGradient></defs><g id="圖層_1" data-name="圖層 1"><path class="cls-1" d="M144.53,46H125.46a1,1,0,0,0-.77,1.5l37.12,52.14a1,1,0,0,0,1.72-.55V65A19,19,0,0,0,144.53,46Z"/><path class="cls-1" d="M52.93,47h-15a1,1,0,0,0-.77,1.5L85.52,116A19,19,0,0,0,101,124h16.84L68.39,55A19,19,0,0,0,52.93,47Z"/><path class="cls-1" d="M123.5,69.2a19,19,0,0,0-15.45-7.94H91.21L130.43,116A19,19,0,0,0,145.89,124H159a1.9,1.9,0,0,0,1.55-3Z"/><path class="cls-2" d="M144.53,46H125.46a1,1,0,0,0-.77,1.5l37.12,52.14a1,1,0,0,0,1.72-.55V65A19,19,0,0,0,144.53,46Z"/><path class="cls-2" d="M52.93,47h-15a1,1,0,0,0-.77,1.5L85.52,116A19,19,0,0,0,101,124h16.84L68.39,55A19,19,0,0,0,52.93,47Z"/><path class="cls-2" d="M123.5,69.2a19,19,0,0,0-15.45-7.94H91.21L130.43,116A19,19,0,0,0,145.89,124H159a1.9,1.9,0,0,0,1.55-3Z"/><polygon class="cls-3" points="91.21 86.82 117.82 123.98 117.82 98.42 91.21 61.26 91.21 86.82"/><g class="cls-4"><polygon class="cls-5" points="91.21 86.82 117.82 123.98 117.82 98.42 91.21 61.26 91.21 86.82"/></g><path class="cls-6" d="M45,150.16a3,3,0,0,1,1.68-.51,2.9,2.9,0,0,1,2,.71,2.44,2.44,0,0,1,.83,1.94,4.55,4.55,0,0,1-.27,1.36l-6.83,18.49a2.71,2.71,0,0,1-1.25,1.48,3.86,3.86,0,0,1-2,.53,3.81,3.81,0,0,1-2-.53A2.74,2.74,0,0,1,36,172.15l-4.42-12.61-4.62,12.61a2.9,2.9,0,0,1-1.26,1.48,3.87,3.87,0,0,1-3.91,0,2.76,2.76,0,0,1-1.23-1.48l-6.86-18.49a3.94,3.94,0,0,1-.24-1.29,2.43,2.43,0,0,1,.9-2,3.21,3.21,0,0,1,2.09-.73,3.26,3.26,0,0,1,1.75.49,2.73,2.73,0,0,1,1.14,1.48L24,165l4.93-13.39a2.78,2.78,0,0,1,1.1-1.46,3,3,0,0,1,1.69-.51,2.84,2.84,0,0,1,2.75,2l4.62,13.67,4.87-13.7A2.78,2.78,0,0,1,45,150.16Z"/><path class="cls-6" d="M52.87,153.61a2.71,2.71,0,0,1-.9-2.13,2.67,2.67,0,0,1,.9-2.11,4.16,4.16,0,0,1,4.85,0,2.66,2.66,0,0,1,.92,2.11,2.71,2.71,0,0,1-.9,2.13,4.11,4.11,0,0,1-4.87,0Zm.28,19.75a2.51,2.51,0,0,1-.87-2.09v-11.7a2.52,2.52,0,0,1,.87-2.09,3.71,3.71,0,0,1,4.31,0,2.52,2.52,0,0,1,.87,2.09v11.7a2.51,2.51,0,0,1-.87,2.09,3.67,3.67,0,0,1-4.31,0Z"/><path class="cls-6" d="M77.54,158.5A8.48,8.48,0,0,1,79,163.93v7.34a2.64,2.64,0,0,1-.81,2,3.63,3.63,0,0,1-4.42,0,2.62,2.62,0,0,1-.82-2V164.2a3.6,3.6,0,0,0-.53-2.18,1.87,1.87,0,0,0-1.58-.68,2.81,2.81,0,0,0-2.16.87,3.31,3.31,0,0,0-.79,2.33v6.73a2.65,2.65,0,0,1-.82,2,3.63,3.63,0,0,1-4.42,0,2.62,2.62,0,0,1-.82-2V159.51a2.54,2.54,0,0,1,.85-2,3.19,3.19,0,0,1,2.21-.76,2.88,2.88,0,0,1,2.06.71,2.45,2.45,0,0,1,.77,1.87,5.69,5.69,0,0,1,2.27-2,7,7,0,0,1,3.1-.68A5.41,5.41,0,0,1,77.54,158.5Z"/><path class="cls-6" d="M99.25,150.48a2.48,2.48,0,0,1,.87,2v18.84a2.62,2.62,0,0,1-.82,2,3.51,3.51,0,0,1-4.23.08,2.5,2.5,0,0,1-.9-1.81,5,5,0,0,1-2.09,1.87,6.86,6.86,0,0,1-3,.68A6.77,6.77,0,0,1,85.21,173a7.43,7.43,0,0,1-2.64-3.11,10.67,10.67,0,0,1-.95-4.59,10.32,10.32,0,0,1,.94-4.54,7,7,0,0,1,2.61-3A7.16,7.16,0,0,1,89,156.72a6.67,6.67,0,0,1,2.94.64,5.09,5.09,0,0,1,2.09,1.74v-6.77a2.43,2.43,0,0,1,.8-1.9,3.13,3.13,0,0,1,2.16-.72A3.25,3.25,0,0,1,99.25,150.48Zm-5.93,18a5,5,0,0,0,.85-3.13,4.91,4.91,0,0,0-.85-3.08,3,3,0,0,0-2.45-1.07,2.91,2.91,0,0,0-2.41,1,4.73,4.73,0,0,0-.86,3,5.05,5.05,0,0,0,.87,3.16,2.86,2.86,0,0,0,2.4,1.12A3,3,0,0,0,93.32,168.52Z"/><path class="cls-6" d="M127,157.21a2.44,2.44,0,0,1,1.38-.42,3,3,0,0,1,2,.76,2.37,2.37,0,0,1,.89,1.85,2.85,2.85,0,0,1-.27,1.13l-5.51,11.79a2.76,2.76,0,0,1-1.14,1.31,3.17,3.17,0,0,1-1.68.46,3.09,3.09,0,0,1-1.67-.46,2.78,2.78,0,0,1-1.12-1.31l-3.23-7.17-3,7.17a2.59,2.59,0,0,1-1.1,1.31,3.2,3.2,0,0,1-1.69.46,3.17,3.17,0,0,1-1.68-.46,2.93,2.93,0,0,1-1.17-1.31l-5.48-11.79a2.55,2.55,0,0,1-.24-1.09,2.37,2.37,0,0,1,.94-1.89,3.21,3.21,0,0,1,2.09-.76,2.69,2.69,0,0,1,1.48.42,2.56,2.56,0,0,1,1,1.31l3.23,7.85,3.3-7.82a2.7,2.7,0,0,1,1-1.29,2.9,2.9,0,0,1,3.07,0,2.7,2.7,0,0,1,1.05,1.29l3.4,7.86,3.16-7.92A2.69,2.69,0,0,1,127,157.21Z"/><path class="cls-6" d="M146.68,158.57c1.24,1.24,1.85,3.11,1.85,5.63v7.1a2.67,2.67,0,0,1-.76,2,3,3,0,0,1-2.13.73,2.84,2.84,0,0,1-1.95-.68,2.57,2.57,0,0,1-.84-1.84,3.73,3.73,0,0,1-1.59,1.91,5.14,5.14,0,0,1-2.69.68,7,7,0,0,1-3.13-.7,5.44,5.44,0,0,1-2.19-1.94,5.09,5.09,0,0,1-.8-2.8,4.2,4.2,0,0,1,.94-2.88,5.44,5.44,0,0,1,3-1.54,25.1,25.1,0,0,1,5.51-.48h.92v-.41a2.35,2.35,0,0,0-.55-1.72,2.58,2.58,0,0,0-1.83-.52,13.32,13.32,0,0,0-4.08,1,4.23,4.23,0,0,1-1.33.27,1.67,1.67,0,0,1-1.36-.61,2.42,2.42,0,0,1-.51-1.6,2.17,2.17,0,0,1,.31-1.22,2.61,2.61,0,0,1,1-.85,11.89,11.89,0,0,1,3-1,17.46,17.46,0,0,1,3.54-.37Q144.82,156.72,146.68,158.57ZM142,169.21a3.2,3.2,0,0,0,.78-2.22v-.41h-.55a8.65,8.65,0,0,0-3.09.39,1.35,1.35,0,0,0-.92,1.31,1.77,1.77,0,0,0,.49,1.29,1.71,1.71,0,0,0,1.28.51A2.61,2.61,0,0,0,142,169.21Z"/><path class="cls-6" d="M152.8,173.36a2.51,2.51,0,0,1-.87-2.09V152.54a2.56,2.56,0,0,1,.87-2.11,3.6,3.6,0,0,1,4.32,0,2.56,2.56,0,0,1,.86,2.11v18.73a2.5,2.5,0,0,1-.86,2.09,3.68,3.68,0,0,1-4.32,0Z"/><path class="cls-6" d="M179.06,171.13a2.89,2.89,0,0,1-.8,2,2.48,2.48,0,0,1-1.92.88,2.85,2.85,0,0,1-1.9-.85l-6.9-6.56v4.59a2.58,2.58,0,0,1-.87,2.11,3.64,3.64,0,0,1-4.32,0,2.57,2.57,0,0,1-.86-2.11V152.54a2.56,2.56,0,0,1,.86-2.11,3.6,3.6,0,0,1,4.32,0,2.56,2.56,0,0,1,.87,2.11v11.52l6.29-6.39a2.63,2.63,0,0,1,2-.88,2.6,2.6,0,0,1,1.92.83,2.57,2.57,0,0,1,.83,1.89,2.66,2.66,0,0,1-.88,1.93L174,165.12l4.22,4A2.66,2.66,0,0,1,179.06,171.13Z"/><path class="cls-6" d="M195.94,169.09a2.49,2.49,0,0,1,.5,1.6,2.25,2.25,0,0,1-1.33,2.08,13.54,13.54,0,0,1-2.73,1,11.85,11.85,0,0,1-2.91.4,10.49,10.49,0,0,1-4.86-1.06,7.47,7.47,0,0,1-3.2-3,10.06,10.06,0,0,1,0-9.13,7.7,7.7,0,0,1,3-3.1,8.62,8.62,0,0,1,4.34-1.1,8.08,8.08,0,0,1,4.11,1,7,7,0,0,1,2.74,2.89,9.46,9.46,0,0,1,1,4.38,1.8,1.8,0,0,1-.36,1.21,1.31,1.31,0,0,1-1,.43h-9a3.69,3.69,0,0,0,1.05,2.34,3.54,3.54,0,0,0,2.41.71,6.45,6.45,0,0,0,1.57-.18,16.5,16.5,0,0,0,1.6-.53l1-.36a3.13,3.13,0,0,1,.9-.15A1.56,1.56,0,0,1,195.94,169.09Zm-9-7.53a3.73,3.73,0,0,0-.85,2.23h5.34c-.14-2-1-3-2.58-3A2.49,2.49,0,0,0,187,161.56Z"/><path class="cls-6" d="M211.7,157.31a2.39,2.39,0,0,1,.68,1.86,2.66,2.66,0,0,1-.63,2,3.76,3.76,0,0,1-2.26.78l-1,.1a3.68,3.68,0,0,0-2.43,1.07,3.6,3.6,0,0,0-.73,2.36v5.82a2.51,2.51,0,0,1-.87,2.09,3.67,3.67,0,0,1-4.31,0,2.51,2.51,0,0,1-.87-2.09V159.51a2.45,2.45,0,0,1,.87-2,3.13,3.13,0,0,1,2.09-.71,2.89,2.89,0,0,1,2,.68,2.4,2.4,0,0,1,.77,1.9V160a4.53,4.53,0,0,1,1.78-2.32,5.22,5.22,0,0,1,2.6-.88l.48,0A2.25,2.25,0,0,1,211.7,157.31Z"/></g></svg>