<svg xmlns="http://www.w3.org/2000/svg" xmlns:xlink="http://www.w3.org/1999/xlink" viewBox="0 0 220 220"><defs><style>.cls-1{fill:#00aa61;}.cls-2{opacity:0.5;}.cls-3{fill:url(#未命名漸層_96);}.cls-4{fill:#fff;}.cls-5{fill:url(#primary);}.cls-6{fill:#333;}</style><linearGradient id="未命名漸層_96" x1="109.7" y1="88.34" x2="115.84" y2="84.04" gradientUnits="userSpaceOnUse"><stop offset="0"/><stop offset="0.07" stop-opacity="0.83"/><stop offset="0.5" stop-opacity="0.65"/><stop offset="0.93" stop-opacity="0.83"/><stop offset="1"/></linearGradient><linearGradient id="primary" x1="140.62" y1="101.24" x2="91.3" y2="51.92" gradientUnits="userSpaceOnUse"><stop offset="0" stop-color="#38f8d6"/><stop offset="0.61" stop-color="#43e87b"/></linearGradient></defs><g id="圖層_1" data-name="圖層 1"><polygon class="cls-1" points="106.18 83.32 119.35 101.72 119.35 89.06 106.18 70.67 106.18 83.32"/><g class="cls-2"><polygon class="cls-3" points="106.18 83.32 119.35 101.72 119.35 89.06 106.18 70.67 106.18 83.32"/></g><path class="cls-4" d="M132.58,63.11h-9.44a.48.48,0,0,0-.39.75l18.38,25.81a.47.47,0,0,0,.85-.27V72.52A9.41,9.41,0,0,0,132.58,63.11Z"/><path class="cls-4" d="M87.23,63.61H79.81a.47.47,0,0,0-.38.74l23.94,33.43a9.38,9.38,0,0,0,7.65,3.93h8.33L94.88,67.54A9.38,9.38,0,0,0,87.23,63.61Z"/><path class="cls-4" d="M122.17,74.6a9.41,9.41,0,0,0-7.65-3.93h-8.34L125.6,97.78a9.4,9.4,0,0,0,7.65,3.93h6.51a.93.93,0,0,0,.76-1.48Z"/><path class="cls-5" d="M132.58,63.11h-9.44a.48.48,0,0,0-.39.75l18.38,25.81a.47.47,0,0,0,.85-.27V72.52A9.41,9.41,0,0,0,132.58,63.11Z"/><path class="cls-5" d="M87.23,63.61H79.81a.47.47,0,0,0-.38.74l23.94,33.43a9.38,9.38,0,0,0,7.65,3.93h8.33L94.88,67.54A9.38,9.38,0,0,0,87.23,63.61Z"/><path class="cls-5" d="M122.17,74.6a9.41,9.41,0,0,0-7.65-3.93h-8.34L125.6,97.78a9.4,9.4,0,0,0,7.65,3.93h6.51a.93.93,0,0,0,.76-1.48Z"/><path class="cls-6" d="M45,124.87a3,3,0,0,1,3.64.2,2.44,2.44,0,0,1,.83,1.94,4.55,4.55,0,0,1-.27,1.36l-6.83,18.49a2.75,2.75,0,0,1-1.25,1.48,3.77,3.77,0,0,1-2,.53,3.72,3.72,0,0,1-2-.53A2.74,2.74,0,0,1,36,146.86l-4.42-12.61-4.63,12.61a2.84,2.84,0,0,1-1.25,1.48,3.87,3.87,0,0,1-3.91,0,2.76,2.76,0,0,1-1.23-1.48l-6.86-18.49a3.85,3.85,0,0,1-.24-1.29,2.43,2.43,0,0,1,.9-2,3.21,3.21,0,0,1,2.09-.73,3.26,3.26,0,0,1,1.75.49,2.73,2.73,0,0,1,1.14,1.48L24,139.73l4.93-13.4a2.82,2.82,0,0,1,1.1-1.46,3,3,0,0,1,1.69-.51,2.84,2.84,0,0,1,2.75,2L39.07,140l4.86-13.7A2.89,2.89,0,0,1,45,124.87Z"/><path class="cls-6" d="M52.89,128.32a2.7,2.7,0,0,1-.9-2.13,2.67,2.67,0,0,1,.9-2.11,4.16,4.16,0,0,1,4.85,0,2.66,2.66,0,0,1,.92,2.11,2.7,2.7,0,0,1-.9,2.13,4.11,4.11,0,0,1-4.87,0Zm.28,19.75A2.51,2.51,0,0,1,52.3,146v-11.7a2.54,2.54,0,0,1,.87-2.09,3.71,3.71,0,0,1,4.31,0,2.54,2.54,0,0,1,.87,2.09V146a2.51,2.51,0,0,1-.87,2.09,3.67,3.67,0,0,1-4.31,0Z"/><path class="cls-6" d="M77.56,133.21A8.48,8.48,0,0,1,79,138.64V146a2.64,2.64,0,0,1-.81,2,3.63,3.63,0,0,1-4.42,0,2.62,2.62,0,0,1-.82-2v-7.07a3.6,3.6,0,0,0-.53-2.18,1.88,1.88,0,0,0-1.58-.68,2.81,2.81,0,0,0-2.16.87,3.33,3.33,0,0,0-.8,2.33V146a2.64,2.64,0,0,1-.81,2,3.63,3.63,0,0,1-4.42,0,2.62,2.62,0,0,1-.82-2V134.22a2.54,2.54,0,0,1,.85-2,3.19,3.19,0,0,1,2.21-.76,2.93,2.93,0,0,1,2.06.71,2.44,2.44,0,0,1,.76,1.87,5.78,5.78,0,0,1,2.28-2,7,7,0,0,1,3.1-.68A5.41,5.41,0,0,1,77.56,133.21Z"/><path class="cls-6" d="M99.27,125.19a2.49,2.49,0,0,1,.87,2V146a2.65,2.65,0,0,1-.82,2,3.53,3.53,0,0,1-4.23.09,2.54,2.54,0,0,1-.9-1.82,5,5,0,0,1-2.09,1.87,6.86,6.86,0,0,1-3,.68,6.77,6.77,0,0,1-3.82-1.11,7.43,7.43,0,0,1-2.64-3.11,10.67,10.67,0,0,1-1-4.59,10.35,10.35,0,0,1,.94-4.54,7.06,7.06,0,0,1,2.61-3,7.16,7.16,0,0,1,3.86-1,6.81,6.81,0,0,1,2.94.64,5.17,5.17,0,0,1,2.09,1.74V127a2.43,2.43,0,0,1,.8-1.9,3.13,3.13,0,0,1,2.16-.71A3.24,3.24,0,0,1,99.27,125.19Zm-5.93,18a5,5,0,0,0,.85-3.13,4.91,4.91,0,0,0-.85-3.08A3,3,0,0,0,90.89,136,2.93,2.93,0,0,0,88.47,137a4.74,4.74,0,0,0-.85,3,5,5,0,0,0,.87,3.16,2.87,2.87,0,0,0,2.4,1.13A3,3,0,0,0,93.34,143.23Z"/><path class="cls-6" d="M127,131.92a2.44,2.44,0,0,1,1.38-.42,3,3,0,0,1,2,.76,2.37,2.37,0,0,1,.89,1.85,2.71,2.71,0,0,1-.28,1.13L125.47,147a2.76,2.76,0,0,1-1.14,1.31,3.18,3.18,0,0,1-1.69.46,3.08,3.08,0,0,1-1.66-.46,2.78,2.78,0,0,1-1.12-1.31l-3.23-7.17-3,7.17a2.59,2.59,0,0,1-1.1,1.31,3.2,3.2,0,0,1-1.69.46,3.17,3.17,0,0,1-1.68-.46A2.93,2.93,0,0,1,108,147l-5.48-11.79a2.55,2.55,0,0,1-.24-1.09,2.37,2.37,0,0,1,.94-1.89,3.21,3.21,0,0,1,2.09-.76,2.71,2.71,0,0,1,1.48.42,2.6,2.6,0,0,1,1,1.31l3.23,7.85,3.3-7.81a2.68,2.68,0,0,1,1-1.3,2.92,2.92,0,0,1,1.53-.44,2.86,2.86,0,0,1,1.53.44,2.64,2.64,0,0,1,1.06,1.3l3.4,7.85L126,133.2A2.74,2.74,0,0,1,127,131.92Z"/><path class="cls-6" d="M146.7,133.28c1.23,1.24,1.85,3.11,1.85,5.63V146a2.66,2.66,0,0,1-.76,2,3,3,0,0,1-2.13.73,2.84,2.84,0,0,1-1.95-.68,2.57,2.57,0,0,1-.84-1.84,3.78,3.78,0,0,1-1.59,1.91,5.14,5.14,0,0,1-2.69.68,7,7,0,0,1-3.13-.7,5.36,5.36,0,0,1-2.19-1.94,5.09,5.09,0,0,1-.8-2.8,4.22,4.22,0,0,1,.94-2.88,5.44,5.44,0,0,1,3-1.54,25.1,25.1,0,0,1,5.51-.48h.92v-.41a2.31,2.31,0,0,0-.55-1.71,2.58,2.58,0,0,0-1.83-.53,13.63,13.63,0,0,0-4.08,1,4.28,4.28,0,0,1-1.33.27,1.67,1.67,0,0,1-1.36-.61,2.42,2.42,0,0,1-.51-1.6,2.17,2.17,0,0,1,.31-1.22,2.61,2.61,0,0,1,1-.85,11.89,11.89,0,0,1,3-1,17.39,17.39,0,0,1,3.54-.37Q144.84,131.43,146.7,133.28ZM142,143.92a3.14,3.14,0,0,0,.79-2.22v-.41h-.55a8.65,8.65,0,0,0-3.09.39,1.35,1.35,0,0,0-.92,1.31,1.77,1.77,0,0,0,.49,1.29,1.71,1.71,0,0,0,1.28.51A2.57,2.57,0,0,0,142,143.92Z"/><path class="cls-6" d="M152.82,148.07A2.51,2.51,0,0,1,152,146V127.25a2.56,2.56,0,0,1,.87-2.11,3.64,3.64,0,0,1,4.32,0,2.56,2.56,0,0,1,.86,2.11V146a2.5,2.5,0,0,1-.86,2.09,3.68,3.68,0,0,1-4.32,0Z"/><path class="cls-6" d="M179.08,145.85a2.88,2.88,0,0,1-.8,2,2.49,2.49,0,0,1-1.92.89,2.9,2.9,0,0,1-1.9-.85l-6.9-6.57v4.59a2.56,2.56,0,0,1-.87,2.11,3.6,3.6,0,0,1-4.32,0,2.56,2.56,0,0,1-.86-2.11V127.25a2.56,2.56,0,0,1,.86-2.11,3.64,3.64,0,0,1,4.32,0,2.56,2.56,0,0,1,.87,2.11v11.52l6.29-6.39a2.64,2.64,0,0,1,3.89,0,2.58,2.58,0,0,1,.83,1.89,2.7,2.7,0,0,1-.88,1.94L174,139.83l4.22,4A2.67,2.67,0,0,1,179.08,145.85Z"/><path class="cls-6" d="M196,143.81a2.44,2.44,0,0,1,.5,1.59,2.25,2.25,0,0,1-1.33,2.08,13.41,13.41,0,0,1-2.74,1,12.16,12.16,0,0,1-2.9.39,10.49,10.49,0,0,1-4.86-1.06,7.47,7.47,0,0,1-3.2-3,10.06,10.06,0,0,1-.05-9.13,7.7,7.7,0,0,1,3-3.1,8.62,8.62,0,0,1,4.34-1.1,8.08,8.08,0,0,1,4.11,1,7,7,0,0,1,2.74,2.89,9.5,9.5,0,0,1,1,4.39,1.79,1.79,0,0,1-.36,1.2,1.27,1.27,0,0,1-1,.43h-9a3.66,3.66,0,0,0,1.05,2.34,3.54,3.54,0,0,0,2.41.72,6,6,0,0,0,1.57-.19,14.15,14.15,0,0,0,1.6-.53c.34-.13.67-.25,1-.35a2.85,2.85,0,0,1,.9-.16A1.54,1.54,0,0,1,196,143.81Zm-9-7.54a3.73,3.73,0,0,0-.85,2.23h5.34c-.14-2-1-3-2.58-3A2.49,2.49,0,0,0,187,136.27Z"/><path class="cls-6" d="M211.72,132a2.39,2.39,0,0,1,.68,1.86,2.66,2.66,0,0,1-.63,2,3.79,3.79,0,0,1-2.26.78l-1,.1a3.68,3.68,0,0,0-2.43,1.07,3.55,3.55,0,0,0-.73,2.37V146a2.51,2.51,0,0,1-.87,2.09,3.67,3.67,0,0,1-4.31,0,2.51,2.51,0,0,1-.87-2.09V134.22a2.47,2.47,0,0,1,.87-2,3.19,3.19,0,0,1,2.09-.71,2.89,2.89,0,0,1,2,.68,2.41,2.41,0,0,1,.76,1.9v.65a4.6,4.6,0,0,1,1.79-2.32,5.22,5.22,0,0,1,2.6-.88l.48,0A2.29,2.29,0,0,1,211.72,132Z"/></g></svg>