<svg xmlns="http://www.w3.org/2000/svg" xmlns:xlink="http://www.w3.org/1999/xlink" viewBox="0 0 220 220"><defs><style>.cls-1{fill:#fff;}.cls-2{fill:url(#primary);}.cls-3{fill:#00aa61;}.cls-4{opacity:0.5;}.cls-5{fill:url(#未命名漸層_26);}</style><linearGradient id="primary" x1="188.85" y1="167.1" x2="39.27" y2="17.52" gradientTransform="translate(7)" gradientUnits="userSpaceOnUse"><stop offset="0" stop-color="#38f8d6"/><stop offset="0.61" stop-color="#43e87b"/></linearGradient><linearGradient id="未命名漸層_26" x1="102.06" y1="127.97" x2="120.69" y2="114.93" gradientUnits="userSpaceOnUse"><stop offset="0" stop-opacity="0.25"/><stop offset="0.07" stop-opacity="0.15"/><stop offset="0.5" stop-opacity="0.05"/><stop offset="0.93" stop-opacity="0.15"/><stop offset="1" stop-opacity="0.25"/></linearGradient></defs><g id="圖層_1" data-name="圖層 1"><path class="cls-1" d="M171.45,51.46H142.83a1.43,1.43,0,0,0-1.17,2.26L197.4,132a1.43,1.43,0,0,0,2.59-.83V80A28.54,28.54,0,0,0,171.45,51.46Z"/><path class="cls-1" d="M33.93,53H11.42a1.43,1.43,0,0,0-1.16,2.26l72.6,101.4a28.55,28.55,0,0,0,23.2,11.92h25.29L57.13,64.89A28.53,28.53,0,0,0,33.93,53Z"/><path class="cls-1" d="M139.89,86.29a28.55,28.55,0,0,0-23.21-11.92H91.4l58.89,82.25a28.55,28.55,0,0,0,23.2,11.92h19.74a2.86,2.86,0,0,0,2.32-4.52Z"/><path class="cls-2" d="M171.45,51.46H142.83a1.43,1.43,0,0,0-1.17,2.26L197.4,132a1.43,1.43,0,0,0,2.59-.83V80A28.54,28.54,0,0,0,171.45,51.46Z"/><path class="cls-2" d="M33.93,53H11.42a1.43,1.43,0,0,0-1.16,2.26l72.6,101.4a28.55,28.55,0,0,0,23.2,11.92h25.29L57.13,64.89A28.53,28.53,0,0,0,33.93,53Z"/><path class="cls-2" d="M139.89,86.29a28.55,28.55,0,0,0-23.21-11.92H91.4l58.89,82.25a28.55,28.55,0,0,0,23.2,11.92h19.74a2.86,2.86,0,0,0,2.32-4.52Z"/><polygon class="cls-3" points="91.4 112.74 131.35 168.54 131.35 130.16 91.4 74.37 91.4 112.74"/><g class="cls-4"><polygon class="cls-5" points="91.4 112.74 131.35 168.54 131.35 130.16 91.4 74.37 91.4 112.74"/></g></g></svg>